<?xml version="1.0" encoding="utf-8"?>
<!DOCTYPE svg PUBLIC "-//W3C//DTD SVG 1.1//EN" "http://www.w3.org/Graphics/SVG/1.1/DTD/svg11.dtd">
<svg version="1.1" id="Calque_1" xmlns="http://www.w3.org/2000/svg" xmlns:xlink="http://www.w3.org/1999/xlink" x="0px" y="0px"
	 width="1728px" height="864px" viewBox="0 0 1728 864" enable-background="new 0 0 1728 864" xml:space="preserve">
<g>
	
		<line fill="none" stroke="#2B2A29" stroke-width="0.2835" stroke-linecap="round" stroke-linejoin="round" stroke-miterlimit="10" x1="411.424" y1="196.178" x2="383.058" y2="74.205"/>
</g>
<g>
	
		<line fill="none" stroke="#2B2A29" stroke-width="0.2835" stroke-linecap="round" stroke-linejoin="round" stroke-miterlimit="10" x1="38.909" y1="231.514" x2="67.275" y2="353.487"/>
</g>
<g>
	
		<line fill="none" stroke="#2B2A29" stroke-width="0.2835" stroke-linecap="round" stroke-linejoin="round" stroke-miterlimit="10" x1="383.058" y1="74.205" x2="354.692" y2="74.205"/>
</g>
<g>
	
		<line fill="none" stroke="#2B2A29" stroke-width="0.2835" stroke-linecap="round" stroke-linejoin="round" stroke-miterlimit="10" x1="67.275" y1="353.487" x2="95.641" y2="353.487"/>
</g>
<g>
	
		<line fill="none" stroke="#2B2A29" stroke-width="0.2835" stroke-linecap="round" stroke-linejoin="round" stroke-miterlimit="10" x1="354.692" y1="74.205" x2="311.681" y2="119.148"/>
</g>
<g>
	
		<line fill="none" stroke="#2B2A29" stroke-width="0.2835" stroke-linecap="round" stroke-linejoin="round" stroke-miterlimit="10" x1="95.641" y1="353.487" x2="138.651" y2="308.544"/>
</g>
<g>
	
		<line fill="none" stroke="#2B2A29" stroke-width="0.2835" stroke-linecap="round" stroke-linejoin="round" stroke-miterlimit="10" x1="290.484" y1="133.773" x2="27.065" y2="133.773"/>
</g>
<g>
	
		<line fill="none" stroke="#2B2A29" stroke-width="0.2835" stroke-linecap="round" stroke-linejoin="round" stroke-miterlimit="10" x1="159.849" y1="293.919" x2="423.268" y2="293.919"/>
</g>
<g>
	
		<path fill="none" stroke="#2B2A29" stroke-width="0.2835" stroke-linecap="round" stroke-linejoin="round" stroke-miterlimit="10" d="
		M290.484,133.773c3.638,0.217,8.82-1.772,11.378-4.366"/>
</g>
<g>
	
		<path fill="none" stroke="#2B2A29" stroke-width="0.2835" stroke-linecap="round" stroke-linejoin="round" stroke-miterlimit="10" d="
		M159.849,293.919c-3.638-0.217-8.82,1.772-11.379,4.366"/>
</g>
<g>
	
		<line fill="none" stroke="#2B2A29" stroke-width="0.2835" stroke-linecap="round" stroke-linejoin="round" stroke-miterlimit="10" x1="411.424" y1="196.178" x2="411.424" y2="239.862"/>
</g>
<g>
	
		<line fill="none" stroke="#2B2A29" stroke-width="0.2835" stroke-linecap="round" stroke-linejoin="round" stroke-miterlimit="10" x1="38.909" y1="231.514" x2="38.909" y2="187.83"/>
</g>
<g>
	
		<path fill="none" stroke="#2B2A29" stroke-width="0.2835" stroke-linecap="round" stroke-linejoin="round" stroke-miterlimit="10" d="
		M398.66,251.208c6.658,0.392,12.373-4.688,12.765-11.347"/>
</g>
<g>
	
		<path fill="none" stroke="#2B2A29" stroke-width="0.2835" stroke-linecap="round" stroke-linejoin="round" stroke-miterlimit="10" d="
		M51.673,176.483c-6.658-0.392-12.373,4.688-12.765,11.347"/>
</g>
<g>
	
		<line fill="none" stroke="#2B2A29" stroke-width="0.2835" stroke-linecap="round" stroke-linejoin="round" stroke-miterlimit="10" x1="398.66" y1="251.208" x2="394.405" y2="251.208"/>
</g>
<g>
	
		<line fill="none" stroke="#2B2A29" stroke-width="0.2835" stroke-linecap="round" stroke-linejoin="round" stroke-miterlimit="10" x1="51.673" y1="176.483" x2="55.928" y2="176.483"/>
</g>
<g>
	
		<path fill="none" stroke="#2B2A29" stroke-width="0.2835" stroke-linecap="round" stroke-linejoin="round" stroke-miterlimit="10" d="
		M382.349,239.862c0.195,6.462,5.593,11.542,12.056,11.347"/>
</g>
<g>
	
		<path fill="none" stroke="#2B2A29" stroke-width="0.2835" stroke-linecap="round" stroke-linejoin="round" stroke-miterlimit="10" d="
		M67.983,187.83c-0.195-6.462-5.593-11.542-12.055-11.347"/>
</g>
<g>
	
		<line fill="none" stroke="#2B2A29" stroke-width="0.2835" stroke-linecap="round" stroke-linejoin="round" stroke-miterlimit="10" x1="394.405" y1="239.862" x2="394.405" y2="230.217"/>
</g>
<g>
	
		<line fill="none" stroke="#2B2A29" stroke-width="0.2835" stroke-linecap="round" stroke-linejoin="round" stroke-miterlimit="10" x1="55.928" y1="187.83" x2="55.928" y2="197.474"/>
</g>
<g>
	
		<line fill="none" stroke="#2B2A29" stroke-width="0.2835" stroke-linecap="round" stroke-linejoin="round" stroke-miterlimit="10" x1="382.349" y1="239.862" x2="394.405" y2="239.862"/>
</g>
<g>
	
		<line fill="none" stroke="#2B2A29" stroke-width="0.2835" stroke-linecap="round" stroke-linejoin="round" stroke-miterlimit="10" x1="67.983" y1="187.83" x2="55.928" y2="187.83"/>
</g>
<g>
	
		<line fill="none" stroke="#2B2A29" stroke-width="0.2835" stroke-linecap="round" stroke-linejoin="round" stroke-miterlimit="10" x1="36.992" y1="173.485" x2="36.992" y2="230.217"/>
</g>
<g>
	
		<line fill="none" stroke="#2B2A29" stroke-width="0.2835" stroke-linecap="round" stroke-linejoin="round" stroke-miterlimit="10" x1="413.34" y1="254.207" x2="413.34" y2="197.474"/>
</g>
<g>
	
		<line fill="none" stroke="#2B2A29" stroke-width="0.2835" stroke-linecap="round" stroke-linejoin="round" stroke-miterlimit="10" x1="394.405" y1="230.217" x2="286.614" y2="230.217"/>
</g>
<g>
	
		<line fill="none" stroke="#2B2A29" stroke-width="0.2835" stroke-linecap="round" stroke-linejoin="round" stroke-miterlimit="10" x1="55.928" y1="197.474" x2="163.719" y2="197.474"/>
</g>
<g>
	
		<path fill="none" stroke="#2B2A29" stroke-width="0.2835" stroke-linecap="round" stroke-linejoin="round" stroke-miterlimit="10" d="
		M27.065,133.773c-10.575,0.392-18.83,9.282-18.438,19.856"/>
</g>
<g>
	
		<path fill="none" stroke="#2B2A29" stroke-width="0.2835" stroke-linecap="round" stroke-linejoin="round" stroke-miterlimit="10" d="
		M423.268,293.919c10.575-0.392,18.83-9.282,18.438-19.856"/>
</g>
<g>
	
		<line fill="none" stroke="#2B2A29" stroke-width="0.2835" stroke-linecap="round" stroke-linejoin="round" stroke-miterlimit="10" x1="69.613" y1="162.139" x2="48.339" y2="162.139"/>
</g>
<g>
	
		<line fill="none" stroke="#2B2A29" stroke-width="0.2835" stroke-linecap="round" stroke-linejoin="round" stroke-miterlimit="10" x1="380.719" y1="265.553" x2="401.994" y2="265.553"/>
</g>
<g>
	
		<path fill="none" stroke="#2B2A29" stroke-width="0.2835" stroke-linecap="round" stroke-linejoin="round" stroke-miterlimit="10" d="
		M48.339,162.139c-6.267,0-11.347,5.08-11.347,11.346"/>
</g>
<g>
	
		<path fill="none" stroke="#2B2A29" stroke-width="0.2835" stroke-linecap="round" stroke-linejoin="round" stroke-miterlimit="10" d="
		M401.994,265.553c6.267,0,11.346-5.08,11.346-11.346"/>
</g>
<g>
	
		<line fill="none" stroke="#2B2A29" stroke-width="0.2835" stroke-linecap="round" stroke-linejoin="round" stroke-miterlimit="10" x1="8.626" y1="239.862" x2="8.626" y2="153.629"/>
</g>
<g>
	
		<line fill="none" stroke="#2B2A29" stroke-width="0.2835" stroke-linecap="round" stroke-linejoin="round" stroke-miterlimit="10" x1="441.707" y1="187.83" x2="441.707" y2="274.063"/>
</g>
<g>
	
		<line fill="none" stroke="#2B2A29" stroke-width="0.2835" stroke-linecap="round" stroke-linejoin="round" stroke-miterlimit="10" x1="36.992" y1="230.217" x2="22.81" y2="230.217"/>
</g>
<g>
	
		<line fill="none" stroke="#2B2A29" stroke-width="0.2835" stroke-linecap="round" stroke-linejoin="round" stroke-miterlimit="10" x1="413.34" y1="197.474" x2="427.522" y2="197.474"/>
</g>
<g>
	
		<line fill="none" stroke="#2B2A29" stroke-width="0.2835" stroke-linecap="round" stroke-linejoin="round" stroke-miterlimit="10" x1="22.81" y1="230.217" x2="22.81" y2="239.862"/>
</g>
<g>
	
		<line fill="none" stroke="#2B2A29" stroke-width="0.2835" stroke-linecap="round" stroke-linejoin="round" stroke-miterlimit="10" x1="427.522" y1="197.474" x2="427.522" y2="187.83"/>
</g>
<g>
	
		<line fill="none" stroke="#2B2A29" stroke-width="0.2835" stroke-linecap="round" stroke-linejoin="round" stroke-miterlimit="10" x1="36.992" y1="239.862" x2="22.81" y2="239.862"/>
</g>
<g>
	
		<line fill="none" stroke="#2B2A29" stroke-width="0.2835" stroke-linecap="round" stroke-linejoin="round" stroke-miterlimit="10" x1="413.34" y1="187.83" x2="427.522" y2="187.83"/>
</g>
<g>
	
		<path fill="none" stroke="#2B2A29" stroke-width="0.2835" stroke-linecap="round" stroke-linejoin="round" stroke-miterlimit="10" d="
		M8.626,239.862c0,6.267,5.08,11.347,11.346,11.347"/>
</g>
<g>
	
		<path fill="none" stroke="#2B2A29" stroke-width="0.2835" stroke-linecap="round" stroke-linejoin="round" stroke-miterlimit="10" d="
		M441.707,187.83c0-6.267-5.08-11.347-11.347-11.347"/>
</g>
<g>
	
		<line fill="none" stroke="#2B2A29" stroke-width="0.2835" stroke-linecap="round" stroke-linejoin="round" stroke-miterlimit="10" x1="19.973" y1="251.208" x2="25.646" y2="251.208"/>
</g>
<g>
	
		<line fill="none" stroke="#2B2A29" stroke-width="0.2835" stroke-linecap="round" stroke-linejoin="round" stroke-miterlimit="10" x1="430.359" y1="176.483" x2="424.686" y2="176.483"/>
</g>
<g>
	
		<path fill="none" stroke="#2B2A29" stroke-width="0.2835" stroke-linecap="round" stroke-linejoin="round" stroke-miterlimit="10" d="
		M25.646,251.208c6.267,0,11.346-5.08,11.346-11.347"/>
</g>
<g>
	
		<path fill="none" stroke="#2B2A29" stroke-width="0.2835" stroke-linecap="round" stroke-linejoin="round" stroke-miterlimit="10" d="
		M424.686,176.483c-6.265,0-11.346,5.08-11.346,11.347"/>
</g>
<g>
	
		<line fill="none" stroke="#2B2A29" stroke-width="0.2835" stroke-linecap="round" stroke-linejoin="round" stroke-miterlimit="10" x1="200.097" y1="164.976" x2="112.163" y2="164.976"/>
</g>
<g>
	
		<line fill="none" stroke="#2B2A29" stroke-width="0.2835" stroke-linecap="round" stroke-linejoin="round" stroke-miterlimit="10" x1="250.236" y1="262.716" x2="338.17" y2="262.716"/>
</g>
<g>
	
		<line fill="none" stroke="#2B2A29" stroke-width="0.2835" stroke-linecap="round" stroke-linejoin="round" stroke-miterlimit="10" x1="112.163" y1="164.976" x2="112.163" y2="174.904"/>
</g>
<g>
	
		<line fill="none" stroke="#2B2A29" stroke-width="0.2835" stroke-linecap="round" stroke-linejoin="round" stroke-miterlimit="10" x1="338.17" y1="262.716" x2="338.17" y2="252.788"/>
</g>
<g>
	
		<line fill="none" stroke="#2B2A29" stroke-width="0.2835" stroke-linecap="round" stroke-linejoin="round" stroke-miterlimit="10" x1="200.097" y1="184.265" x2="200.097" y2="164.976"/>
</g>
<g>
	
		<line fill="none" stroke="#2B2A29" stroke-width="0.2835" stroke-linecap="round" stroke-linejoin="round" stroke-miterlimit="10" x1="250.236" y1="243.427" x2="250.236" y2="262.716"/>
</g>
<g>
	
		<line fill="none" stroke="#2B2A29" stroke-width="0.2835" stroke-linecap="round" stroke-linejoin="round" stroke-miterlimit="10" x1="112.163" y1="174.904" x2="97.98" y2="174.904"/>
</g>
<g>
	
		<line fill="none" stroke="#2B2A29" stroke-width="0.2835" stroke-linecap="round" stroke-linejoin="round" stroke-miterlimit="10" x1="338.17" y1="252.788" x2="352.353" y2="252.788"/>
</g>
<g>
	
		<line fill="none" stroke="#2B2A29" stroke-width="0.2835" stroke-linecap="round" stroke-linejoin="round" stroke-miterlimit="10" x1="97.98" y1="174.904" x2="69.613" y2="162.139"/>
</g>
<g>
	
		<line fill="none" stroke="#2B2A29" stroke-width="0.2835" stroke-linecap="round" stroke-linejoin="round" stroke-miterlimit="10" x1="352.353" y1="252.788" x2="380.719" y2="265.553"/>
</g>
<g>
	
		<line fill="none" stroke="#2B2A29" stroke-width="0.2835" stroke-linecap="round" stroke-linejoin="round" stroke-miterlimit="10" x1="319.404" y1="68.087" x2="319.404" y2="51.776"/>
</g>
<g>
	
		<line fill="none" stroke="#2B2A29" stroke-width="0.2835" stroke-linecap="round" stroke-linejoin="round" stroke-miterlimit="10" x1="319.404" y1="42.132" x2="319.404" y2="28.579"/>
</g>
<g>
	
		<line fill="none" stroke="#2B2A29" stroke-width="0.2835" stroke-linecap="round" stroke-linejoin="round" stroke-miterlimit="10" x1="319.404" y1="68.087" x2="319.404" y2="84.397"/>
</g>
<g>
	
		<line fill="none" stroke="#2B2A29" stroke-width="0.2835" stroke-linecap="round" stroke-linejoin="round" stroke-miterlimit="10" x1="319.404" y1="94.042" x2="319.404" y2="107.311"/>
</g>
<g>
	
		<path fill="none" stroke="#2B2A29" stroke-width="0.2835" stroke-linecap="round" stroke-linejoin="round" stroke-miterlimit="10" d="
		M298.777,246.379c0-2.506-2.032-4.539-4.539-4.539c-2.505,0-4.538,2.032-4.538,4.539c0,2.507,2.032,4.539,4.538,4.539
		C296.746,250.917,298.777,248.886,298.777,246.379"/>
</g>
<g>
	
		<path fill="none" stroke="#2B2A29" stroke-width="0.2835" stroke-linecap="round" stroke-linejoin="round" stroke-miterlimit="10" d="
		M156.421,181.018c0-2.507-2.033-4.539-4.539-4.539c-2.507,0-4.539,2.032-4.539,4.539c0,2.506,2.032,4.538,4.539,4.538
		C154.388,185.555,156.421,183.523,156.421,181.018"/>
</g>
<g>
	
		<line fill="none" stroke="#2B2A29" stroke-width="0.2835" stroke-linecap="round" stroke-linejoin="round" stroke-miterlimit="10" x1="310.549" y1="260.562" x2="310.549" y2="246.379"/>
</g>
<g>
	
		<line fill="none" stroke="#2B2A29" stroke-width="0.2835" stroke-linecap="round" stroke-linejoin="round" stroke-miterlimit="10" x1="168.192" y1="195.2" x2="168.192" y2="181.018"/>
</g>
<g>
	
		<line fill="none" stroke="#2B2A29" stroke-width="0.2835" stroke-linecap="round" stroke-linejoin="round" stroke-miterlimit="10" x1="310.549" y1="246.379" x2="320.193" y2="246.379"/>
</g>
<g>
	
		<line fill="none" stroke="#2B2A29" stroke-width="0.2835" stroke-linecap="round" stroke-linejoin="round" stroke-miterlimit="10" x1="168.192" y1="181.018" x2="177.837" y2="181.018"/>
</g>
<g>
	
		<line fill="none" stroke="#2B2A29" stroke-width="0.2835" stroke-linecap="round" stroke-linejoin="round" stroke-miterlimit="10" x1="320.193" y1="260.562" x2="320.193" y2="246.379"/>
</g>
<g>
	
		<line fill="none" stroke="#2B2A29" stroke-width="0.2835" stroke-linecap="round" stroke-linejoin="round" stroke-miterlimit="10" x1="177.837" y1="195.2" x2="177.837" y2="181.018"/>
</g>
<g>
	
		<path fill="none" stroke="#2B2A29" stroke-width="0.2835" stroke-linecap="round" stroke-linejoin="round" stroke-miterlimit="10" d="
		M331.541,243.542c0-6.267-5.081-11.346-11.347-11.346"/>
</g>
<g>
	
		<path fill="none" stroke="#2B2A29" stroke-width="0.2835" stroke-linecap="round" stroke-linejoin="round" stroke-miterlimit="10" d="
		M189.184,178.18c0-6.267-5.08-11.346-11.346-11.346"/>
</g>
<g>
	
		<line fill="none" stroke="#2B2A29" stroke-width="0.2835" stroke-linecap="round" stroke-linejoin="round" stroke-miterlimit="10" x1="331.541" y1="243.542" x2="331.541" y2="249.216"/>
</g>
<g>
	
		<line fill="none" stroke="#2B2A29" stroke-width="0.2835" stroke-linecap="round" stroke-linejoin="round" stroke-miterlimit="10" x1="189.184" y1="178.18" x2="189.184" y2="183.854"/>
</g>
<g>
	
		<path fill="none" stroke="#2B2A29" stroke-width="0.2835" stroke-linecap="round" stroke-linejoin="round" stroke-miterlimit="10" d="
		M320.193,260.562c6.267,0,11.347-5.08,11.347-11.346"/>
</g>
<g>
	
		<path fill="none" stroke="#2B2A29" stroke-width="0.2835" stroke-linecap="round" stroke-linejoin="round" stroke-miterlimit="10" d="
		M177.837,195.2c6.266,0,11.346-5.08,11.346-11.346"/>
</g>
<g>
	
		<line fill="none" stroke="#2B2A29" stroke-width="0.2835" stroke-linecap="round" stroke-linejoin="round" stroke-miterlimit="10" x1="320.193" y1="232.196" x2="268.284" y2="232.196"/>
</g>
<g>
	
		<line fill="none" stroke="#2B2A29" stroke-width="0.2835" stroke-linecap="round" stroke-linejoin="round" stroke-miterlimit="10" x1="177.837" y1="166.834" x2="125.927" y2="166.834"/>
</g>
<g>
	
		<line fill="none" stroke="#2B2A29" stroke-width="0.2835" stroke-linecap="round" stroke-linejoin="round" stroke-miterlimit="10" x1="294.238" y1="260.562" x2="310.549" y2="260.562"/>
</g>
<g>
	
		<line fill="none" stroke="#2B2A29" stroke-width="0.2835" stroke-linecap="round" stroke-linejoin="round" stroke-miterlimit="10" x1="151.882" y1="195.2" x2="168.192" y2="195.2"/>
</g>
<g>
	
		<line fill="none" stroke="#2B2A29" stroke-width="0.2835" stroke-linecap="round" stroke-linejoin="round" stroke-miterlimit="10" x1="277.928" y1="260.562" x2="277.928" y2="246.379"/>
</g>
<g>
	
		<line fill="none" stroke="#2B2A29" stroke-width="0.2835" stroke-linecap="round" stroke-linejoin="round" stroke-miterlimit="10" x1="135.571" y1="195.2" x2="135.571" y2="181.018"/>
</g>
<g>
	
		<line fill="none" stroke="#2B2A29" stroke-width="0.2835" stroke-linecap="round" stroke-linejoin="round" stroke-miterlimit="10" x1="305.013" y1="126.116" x2="315.721" y2="136.364"/>
</g>
<g>
	
		<line fill="none" stroke="#2B2A29" stroke-width="0.2835" stroke-linecap="round" stroke-linejoin="round" stroke-miterlimit="10" x1="145.32" y1="301.576" x2="134.611" y2="291.328"/>
</g>
<g>
	
		<line fill="none" stroke="#2B2A29" stroke-width="0.2835" stroke-linecap="round" stroke-linejoin="round" stroke-miterlimit="10" x1="277.928" y1="246.379" x2="268.284" y2="246.379"/>
</g>
<g>
	
		<line fill="none" stroke="#2B2A29" stroke-width="0.2835" stroke-linecap="round" stroke-linejoin="round" stroke-miterlimit="10" x1="135.571" y1="181.018" x2="125.927" y2="181.018"/>
</g>
<g>
	
		<line fill="none" stroke="#2B2A29" stroke-width="0.2835" stroke-linecap="round" stroke-linejoin="round" stroke-miterlimit="10" x1="315.721" y1="136.364" x2="322.39" y2="129.397"/>
</g>
<g>
	
		<line fill="none" stroke="#2B2A29" stroke-width="0.2835" stroke-linecap="round" stroke-linejoin="round" stroke-miterlimit="10" x1="134.611" y1="291.328" x2="127.942" y2="298.295"/>
</g>
<g>
	
		<line fill="none" stroke="#2B2A29" stroke-width="0.2835" stroke-linecap="round" stroke-linejoin="round" stroke-miterlimit="10" x1="268.284" y1="260.562" x2="268.284" y2="246.379"/>
</g>
<g>
	
		<line fill="none" stroke="#2B2A29" stroke-width="0.2835" stroke-linecap="round" stroke-linejoin="round" stroke-miterlimit="10" x1="125.927" y1="195.2" x2="125.927" y2="181.018"/>
</g>
<g>
	
		<line fill="none" stroke="#2B2A29" stroke-width="0.2835" stroke-linecap="round" stroke-linejoin="round" stroke-miterlimit="10" x1="311.681" y1="119.148" x2="322.39" y2="129.397"/>
</g>
<g>
	
		<line fill="none" stroke="#2B2A29" stroke-width="0.2835" stroke-linecap="round" stroke-linejoin="round" stroke-miterlimit="10" x1="138.651" y1="308.544" x2="127.942" y2="298.295"/>
</g>
<g>
	
		<path fill="none" stroke="#2B2A29" stroke-width="0.2835" stroke-linecap="round" stroke-linejoin="round" stroke-miterlimit="10" d="
		M268.284,232.196c-6.266,0-11.346,5.08-11.346,11.346"/>
</g>
<g>
	
		<path fill="none" stroke="#2B2A29" stroke-width="0.2835" stroke-linecap="round" stroke-linejoin="round" stroke-miterlimit="10" d="
		M125.927,166.834c-6.267,0-11.346,5.08-11.346,11.346"/>
</g>
<g>
	
		<line fill="none" stroke="#2B2A29" stroke-width="0.2835" stroke-linecap="round" stroke-linejoin="round" stroke-miterlimit="10" x1="256.938" y1="243.542" x2="256.938" y2="249.216"/>
</g>
<g>
	
		<line fill="none" stroke="#2B2A29" stroke-width="0.2835" stroke-linecap="round" stroke-linejoin="round" stroke-miterlimit="10" x1="114.581" y1="178.18" x2="114.581" y2="183.854"/>
</g>
<g>
	
		<path fill="none" stroke="#2B2A29" stroke-width="0.2835" stroke-linecap="round" stroke-linejoin="round" stroke-miterlimit="10" d="
		M256.938,249.216c0,6.266,5.08,11.346,11.346,11.346"/>
</g>
<g>
	
		<path fill="none" stroke="#2B2A29" stroke-width="0.2835" stroke-linecap="round" stroke-linejoin="round" stroke-miterlimit="10" d="
		M114.581,183.854c0,6.267,5.08,11.346,11.346,11.346"/>
</g>
<g>
	
		<line fill="none" stroke="#2B2A29" stroke-width="0.2835" stroke-linecap="round" stroke-linejoin="round" stroke-miterlimit="10" x1="294.238" y1="260.562" x2="277.928" y2="260.562"/>
</g>
<g>
	
		<line fill="none" stroke="#2B2A29" stroke-width="0.2835" stroke-linecap="round" stroke-linejoin="round" stroke-miterlimit="10" x1="151.882" y1="195.2" x2="135.571" y2="195.2"/>
</g>
<g>
	<g>
		
			<line fill="none" stroke="#2B2A29" stroke-width="0.2835" stroke-linecap="round" stroke-linejoin="round" stroke-miterlimit="10" x1="177.511" y1="107.869" x2="163.328" y2="107.869"/>
	</g>
	<g>
		
			<line fill="none" stroke="#2B2A29" stroke-width="0.2835" stroke-linecap="round" stroke-linejoin="round" stroke-miterlimit="10" x1="163.328" y1="107.869" x2="163.328" y2="117.513"/>
	</g>
	<g>
		
			<line fill="none" stroke="#2B2A29" stroke-width="0.2835" stroke-linecap="round" stroke-linejoin="round" stroke-miterlimit="10" x1="177.511" y1="117.513" x2="163.328" y2="117.513"/>
	</g>
	<g>
		
			<line fill="none" stroke="#2B2A29" stroke-width="0.2835" stroke-linecap="round" stroke-linejoin="round" stroke-miterlimit="10" x1="177.511" y1="91.559" x2="177.511" y2="107.869"/>
	</g>
	<g>
		
			<path fill="none" stroke="#2B2A29" stroke-width="0.2835" stroke-linecap="round" stroke-linejoin="round" stroke-miterlimit="10" d="
			M164.746,129.569c6.854,0.196,12.568-5.202,12.765-12.056"/>
	</g>
	<g>
		
			<line fill="none" stroke="#2B2A29" stroke-width="0.2835" stroke-linecap="round" stroke-linejoin="round" stroke-miterlimit="10" x1="177.511" y1="75.248" x2="163.328" y2="75.248"/>
	</g>
	<g>
		
			<line fill="none" stroke="#2B2A29" stroke-width="0.2835" stroke-linecap="round" stroke-linejoin="round" stroke-miterlimit="10" x1="163.328" y1="75.248" x2="163.328" y2="65.604"/>
	</g>
	<g>
		
			<line fill="none" stroke="#2B2A29" stroke-width="0.2835" stroke-linecap="round" stroke-linejoin="round" stroke-miterlimit="10" x1="177.511" y1="65.604" x2="163.328" y2="65.604"/>
	</g>
	<g>
		
			<line fill="none" stroke="#2B2A29" stroke-width="0.2835" stroke-linecap="round" stroke-linejoin="round" stroke-miterlimit="10" x1="177.511" y1="91.559" x2="177.511" y2="75.248"/>
	</g>
	<g>
		
			<path fill="none" stroke="#2B2A29" stroke-width="0.2835" stroke-linecap="round" stroke-linejoin="round" stroke-miterlimit="10" d="
			M177.511,65.604c-0.196-6.854-5.911-12.251-12.765-12.056"/>
	</g>
	<g>
		
			<line fill="none" stroke="#2B2A29" stroke-width="0.2835" stroke-linecap="round" stroke-linejoin="round" stroke-miterlimit="10" x1="61.21" y1="107.869" x2="75.393" y2="107.869"/>
	</g>
	<g>
		
			<line fill="none" stroke="#2B2A29" stroke-width="0.2835" stroke-linecap="round" stroke-linejoin="round" stroke-miterlimit="10" x1="75.393" y1="107.869" x2="75.393" y2="117.513"/>
	</g>
	<g>
		
			<line fill="none" stroke="#2B2A29" stroke-width="0.2835" stroke-linecap="round" stroke-linejoin="round" stroke-miterlimit="10" x1="61.21" y1="117.513" x2="75.393" y2="117.513"/>
	</g>
	<g>
		
			<line fill="none" stroke="#2B2A29" stroke-width="0.2835" stroke-linecap="round" stroke-linejoin="round" stroke-miterlimit="10" x1="61.21" y1="91.559" x2="61.21" y2="107.869"/>
	</g>
	<g>
		
			<path fill="none" stroke="#2B2A29" stroke-width="0.2835" stroke-linecap="round" stroke-linejoin="round" stroke-miterlimit="10" d="
			M61.21,117.513c0,6.659,5.397,12.056,12.056,12.056"/>
	</g>
	<g>
		
			<line fill="none" stroke="#2B2A29" stroke-width="0.2835" stroke-linecap="round" stroke-linejoin="round" stroke-miterlimit="10" x1="61.21" y1="75.248" x2="75.393" y2="75.248"/>
	</g>
	<g>
		
			<line fill="none" stroke="#2B2A29" stroke-width="0.2835" stroke-linecap="round" stroke-linejoin="round" stroke-miterlimit="10" x1="75.393" y1="75.248" x2="75.393" y2="65.604"/>
	</g>
	<g>
		
			<line fill="none" stroke="#2B2A29" stroke-width="0.2835" stroke-linecap="round" stroke-linejoin="round" stroke-miterlimit="10" x1="61.21" y1="65.604" x2="75.393" y2="65.604"/>
	</g>
	<g>
		
			<line fill="none" stroke="#2B2A29" stroke-width="0.2835" stroke-linecap="round" stroke-linejoin="round" stroke-miterlimit="10" x1="61.21" y1="91.559" x2="61.21" y2="75.248"/>
	</g>
	<g>
		
			<path fill="none" stroke="#2B2A29" stroke-width="0.2835" stroke-linecap="round" stroke-linejoin="round" stroke-miterlimit="10" d="
			M73.266,53.548c-6.658,0-12.056,5.397-12.056,12.056"/>
	</g>
	<g>
		
			<line fill="none" stroke="#2B2A29" stroke-width="0.2835" stroke-linecap="round" stroke-linejoin="round" stroke-miterlimit="10" x1="73.266" y1="129.569" x2="164.746" y2="129.569"/>
	</g>
	<g>
		
			<line fill="none" stroke="#2B2A29" stroke-width="0.2835" stroke-linecap="round" stroke-linejoin="round" stroke-miterlimit="10" x1="73.266" y1="53.548" x2="164.746" y2="53.548"/>
	</g>
</g>
<g>
	
		<path fill="none" stroke="#2B2A29" stroke-width="0.2835" stroke-linecap="round" stroke-linejoin="round" stroke-miterlimit="10" d="
		M200.097,184.265c15.672,28.296,54.297,48.812,86.517,45.953"/>
</g>
<g>
	
		<path fill="none" stroke="#2B2A29" stroke-width="0.2835" stroke-linecap="round" stroke-linejoin="round" stroke-miterlimit="10" d="
		M250.236,243.427c-15.672-28.296-54.297-48.812-86.517-45.953"/>
</g>
<g>
	<g>
		
			<path fill="none" stroke="#2B2A29" stroke-width="0.2835" stroke-linecap="round" stroke-linejoin="round" stroke-miterlimit="10" d="
			M319.404,28.863c-26.586-26.807-74.809-30.976-107.708-9.313c-32.899,21.663-38.017,60.955-11.43,87.762
			c26.586,26.807,74.808,30.976,107.708,9.313c3.353-2.075,8.882-6.581,11.43-9.313"/>
	</g>
	<g>
		
			<path fill="none" stroke="#2B2A29" stroke-width="0.2835" stroke-linecap="round" stroke-linejoin="round" stroke-miterlimit="10" d="
			M254.162,21.283c0-2.35-1.904-4.255-4.255-4.255c-2.35,0-4.255,1.905-4.255,4.255c0,2.35,1.905,4.255,4.255,4.255
			C252.257,25.538,254.162,23.633,254.162,21.283"/>
	</g>
	<g>
		
			<path fill="none" stroke="#2B2A29" stroke-width="0.2835" stroke-linecap="round" stroke-linejoin="round" stroke-miterlimit="10" d="
			M254.162,114.891c0-2.35-1.904-4.255-4.255-4.255c-2.35,0-4.255,1.905-4.255,4.255c0,2.35,1.905,4.255,4.255,4.255
			C252.257,119.146,254.162,117.241,254.162,114.891"/>
	</g>
	<g>
		
			<path fill="none" stroke="#2B2A29" stroke-width="0.2835" stroke-linecap="round" stroke-linejoin="round" stroke-miterlimit="10" d="
			M207.358,68.087c0-2.35-1.905-4.254-4.255-4.254c-2.35,0-4.255,1.904-4.255,4.254s1.905,4.255,4.255,4.255
			C205.453,72.342,207.358,70.437,207.358,68.087"/>
	</g>
	<g>
		
			<path fill="none" stroke="#2B2A29" stroke-width="0.2835" stroke-linecap="round" stroke-linejoin="round" stroke-miterlimit="10" d="
			M300.965,68.087c0-2.35-1.904-4.254-4.253-4.254c-2.351,0-4.256,1.904-4.256,4.254s1.905,4.255,4.256,4.255
			C299.061,72.342,300.965,70.437,300.965,68.087"/>
	</g>
	<g>
		
			<line fill="none" stroke="#2B2A29" stroke-width="0.2835" stroke-linecap="round" stroke-linejoin="round" stroke-miterlimit="10" x1="319.404" y1="51.776" x2="299.547" y2="51.776"/>
	</g>
	<g>
		
			<line fill="none" stroke="#2B2A29" stroke-width="0.2835" stroke-linecap="round" stroke-linejoin="round" stroke-miterlimit="10" x1="299.547" y1="51.776" x2="299.547" y2="42.132"/>
	</g>
	<g>
		
			<line fill="none" stroke="#2B2A29" stroke-width="0.2835" stroke-linecap="round" stroke-linejoin="round" stroke-miterlimit="10" x1="299.547" y1="42.132" x2="319.404" y2="42.132"/>
	</g>
	<g>
		
			<line fill="none" stroke="#2B2A29" stroke-width="0.2835" stroke-linecap="round" stroke-linejoin="round" stroke-miterlimit="10" x1="299.547" y1="84.397" x2="319.404" y2="84.397"/>
	</g>
	<g>
		
			<line fill="none" stroke="#2B2A29" stroke-width="0.2835" stroke-linecap="round" stroke-linejoin="round" stroke-miterlimit="10" x1="299.547" y1="94.042" x2="319.404" y2="94.042"/>
	</g>
	<g>
		
			<line fill="none" stroke="#2B2A29" stroke-width="0.2835" stroke-linecap="round" stroke-linejoin="round" stroke-miterlimit="10" x1="299.547" y1="84.397" x2="299.547" y2="94.042"/>
	</g>
	<g>
		
			<path fill="none" stroke="#2B2A29" stroke-width="0.2835" stroke-linecap="round" stroke-linejoin="round" stroke-miterlimit="10" d="
			M256.998,68.087c0-3.917-3.175-7.092-7.091-7.092c-3.916,0-7.091,3.175-7.091,7.092s3.175,7.091,7.091,7.091
			C253.823,75.178,256.998,72.003,256.998,68.087"/>
	</g>
</g>
<g>
	
		<path fill="none" stroke="#2B2A29" stroke-width="0.2835" stroke-linecap="round" stroke-linejoin="round" stroke-miterlimit="10" d="
		M263.204,196.7c0.089,9.736,15.663,17.485,34.783,17.308c19.12-0.177,34.547-8.213,34.456-17.949
		c-0.09-9.736-15.663-17.486-34.782-17.309C278.541,178.927,263.113,186.963,263.204,196.7"/>
</g>
<g>
	
		<path fill="none" stroke="#2B2A29" stroke-width="0.2835" stroke-linecap="round" stroke-linejoin="round" stroke-miterlimit="10" d="
		M187.129,230.992c-0.09-9.736-15.663-17.485-34.783-17.308c-19.12,0.177-34.546,8.213-34.457,17.949
		c0.09,9.736,15.663,17.485,34.783,17.309C171.793,248.765,187.22,240.729,187.129,230.992"/>
</g>
<g>
	
		<line fill="none" stroke="#2B2A29" stroke-width="0.2835" stroke-linecap="round" stroke-linejoin="round" stroke-miterlimit="10" x1="305.013" y1="126.116" x2="301.863" y2="129.407"/>
</g>
<g>
	
		<line fill="none" stroke="#2B2A29" stroke-width="0.2835" stroke-linecap="round" stroke-linejoin="round" stroke-miterlimit="10" x1="145.32" y1="301.576" x2="148.47" y2="298.285"/>
</g>
</svg>
